<svg width="800" height="900" viewBox="0 0 800 900" xmlns="http://www.w3.org/2000/svg" fill="none">
  <!-- dotted connectors -->
  <g stroke="#FAF7F0" stroke-opacity="0.07" stroke-width="2" stroke-dasharray="2 8" stroke-linecap="round">
    <path d="M140 130 C 260 220, 380 90, 520 150"/>
    <path d="M150 660 C 300 600, 420 760, 620 700"/>
    <path d="M660 200 C 600 380, 500 420, 420 520"/>
  </g>

  <!-- graduation cap -->
  <g transform="translate(70,70) rotate(-8) scale(1.9)" stroke="#FF6B35" stroke-opacity="0.24" stroke-width="2.4" stroke-linecap="round" stroke-linejoin="round">
    <path d="M0 8 L20 0 L40 8 L20 16 Z"/>
    <path d="M6 10 L6 18 Q20 24 34 18 L34 10"/>
    <line x1="34" y1="10" x2="34" y2="21"/>
    <circle cx="34" cy="23" r="1.6" fill="#FF6B35" fill-opacity="0.24"/>
  </g>

  <!-- calendar -->
  <g transform="translate(600,90) rotate(6) scale(1.7)" stroke="#E0A458" stroke-opacity="0.22" stroke-width="2.2" stroke-linecap="round" stroke-linejoin="round">
    <rect x="2" y="4" width="28" height="32" rx="3"/>
    <line x1="2" y1="13" x2="30" y2="13"/>
    <line x1="9" y1="0" x2="9" y2="8"/>
    <line x1="23" y1="0" x2="23" y2="8"/>
    <line x1="8" y1="20" x2="22" y2="20"/>
    <line x1="8" y1="27" x2="18" y2="27"/>
  </g>

  <!-- lightbulb -->
  <g transform="translate(110,640) rotate(-6) scale(1.8)" stroke="#2D6A4F" stroke-opacity="0.24" stroke-width="2.3" stroke-linecap="round" stroke-linejoin="round">
    <circle cx="16" cy="14" r="11"/>
    <line x1="11" y1="27" x2="21" y2="27"/>
    <line x1="12.5" y1="31" x2="19.5" y2="31"/>
    <line x1="16" y1="2" x2="16" y2="-2"/>
  </g>

  <!-- megaphone -->
  <g transform="translate(650,540) rotate(10) scale(1.9)" stroke="#FF6B35" stroke-opacity="0.2" stroke-width="2.3" stroke-linecap="round" stroke-linejoin="round">
    <path d="M4 14 L4 22 L10 22 L25 31 L25 5 L10 14 Z"/>
    <path d="M25 11 Q31 18 25 25"/>
    <path d="M6 22 L9 30"/>
  </g>

  <!-- trophy -->
  <g transform="translate(60,790) rotate(-4) scale(1.7)" stroke="#E0A458" stroke-opacity="0.2" stroke-width="2.2" stroke-linecap="round" stroke-linejoin="round">
    <path d="M10 4 H30 V13 Q30 23 20 25 Q10 23 10 13 Z"/>
    <path d="M10 8 H4 Q4 17 12 17"/>
    <path d="M30 8 H36 Q36 17 28 17"/>
    <line x1="20" y1="25" x2="20" y2="31"/>
    <line x1="12" y1="35" x2="28" y2="35"/>
    <line x1="20" y1="31" x2="20" y2="35"/>
  </g>

  <!-- open book -->
  <g transform="translate(630,770) rotate(7) scale(1.9)" stroke="#2D6A4F" stroke-opacity="0.22" stroke-width="2.2" stroke-linecap="round" stroke-linejoin="round">
    <path d="M2 4 Q14 0 18 4 V29 Q14 25 2 29 Z"/>
    <path d="M34 4 Q22 0 18 4 V29 Q22 25 34 29 Z"/>
    <line x1="6" y1="9" x2="14" y2="7.5"/>
    <line x1="6" y1="15" x2="14" y2="13.5"/>
    <line x1="22" y1="7.5" x2="30" y2="9"/>
    <line x1="22" y1="13.5" x2="30" y2="15"/>
  </g>

  <!-- map pin (top center, behind cards) -->
  <g transform="translate(400,40) rotate(0) scale(1.6)" stroke="#FF6B35" stroke-opacity="0.13" stroke-width="2.4" stroke-linecap="round" stroke-linejoin="round">
    <path d="M16 0 C24 0 30 6 30 14 C30 24 16 38 16 38 C16 38 2 24 2 14 C2 6 8 0 16 0 Z"/>
    <circle cx="16" cy="14" r="5"/>
  </g>

  <!-- scattered stars -->
  <g fill="#E0A458">
    <path d="M250 60 L252.4 67 L260 67.5 L254 72 L256 79.5 L250 75 L244 79.5 L246 72 L240 67.5 L247.6 67 Z" fill-opacity="0.3"/>
    <path d="M530 640 L532 645.5 L538 646 L533.4 649.7 L535 655.5 L530 652 L525 655.5 L526.6 649.7 L522 646 L528 645.5 Z" fill-opacity="0.28"/>
    <path d="M730 380 L731.8 385 L737 385.5 L733 388.8 L734.4 394 L730 391 L725.6 394 L727 388.8 L723 385.5 L728.2 385 Z" fill-opacity="0.25"/>
  </g>
</svg>
